<svg viewBox="174.285 212.567 155 155" xmlns="http://www.w3.org/2000/svg" xmlns:bx="https://boxy-svg.com">
  <path style="stroke: rgb(0, 0, 0); fill: rgb(255, 255, 255); paint-order: fill;" d="M 192.285 212.567 H 311.285 A 18 18 0 0 1 329.285 230.567 V 349.567 A 18 18 0 0 1 311.285 367.567 H 174.285 V 230.567 A 18 18 0 0 1 192.285 212.567 Z" transform="matrix(1, 0, 0, 1, 0, -2.842170943040401e-14)" bx:shape="rect 174.285 212.567 155 155 18 18 18 0 1@55f0b88f"/>
  <path style="paint-order: fill; stroke: rgb(0, 0, 0);" d="M 192.285 222.567 H 214.285 V 252.567 H 184.285 V 230.567 A 8 8 0 0 1 192.285 222.567 Z" transform="matrix(1, 0, 0, 1, 0, -2.842170943040401e-14)" bx:shape="rect 184.285 222.567 30 30 8 0 0 0 1@86492406"/>
  <rect style="paint-order: fill; stroke: rgb(0, 0, 0);" x="219.285" width="30" height="30" y="222.567" transform="matrix(1, 0, 0, 1, 0, -2.842170943040401e-14)"/>
  <rect style="stroke: rgb(0, 0, 0); fill: rgb(255, 255, 255); paint-order: fill;" x="254.285" width="30" height="30" y="222.567" transform="matrix(1, 0, 0, 1, 0, -2.842170943040401e-14)"/>
  <path style="stroke: rgb(0, 0, 0); fill: rgb(255, 255, 255); paint-order: fill;" d="M 184.285 292.567 H 214.285 V 314.567 A 8 8 0 0 1 206.285 322.567 H 184.285 V 292.567 Z" transform="matrix(1, 0, 0, 1, 0, -2.842170943040401e-14)" bx:shape="rect 184.285 292.567 30 30 0 0 8 0 1@aa206d67"/>
  <path style="stroke: rgb(0, 0, 0); fill: rgb(255, 255, 255); paint-order: fill;" d="M 289.285 222.567 H 311.285 A 8 8 0 0 1 319.285 230.567 V 252.567 H 289.285 V 222.567 Z" transform="matrix(1, 0, 0, 1, 0, -2.842170943040401e-14)" bx:shape="rect 289.285 222.567 30 30 0 8 0 0 1@57ef8940"/>
  <path style="stroke: rgb(0, 0, 0); fill: rgb(255, 255, 255); paint-order: fill;" d="M 219.285 292.567 H 249.285 V 314.567 A 8 8 0 0 1 241.285 322.567 H 227.285 A 8 8 0 0 1 219.285 314.567 V 292.567 Z" transform="matrix(1, 0, 0, 1, 0, -2.842170943040401e-14)" bx:shape="rect 219.285 292.567 30 30 0 0 8 8 1@2c2a2591"/>
  <path style="stroke: rgb(0, 0, 0); fill: rgb(255, 255, 255); paint-order: fill;" d="M 254.285 292.567 H 284.285 V 322.567 H 262.285 A 8 8 0 0 1 254.285 314.567 V 292.567 Z" transform="matrix(1, 0, 0, 1, 0, -2.842170943040401e-14)" bx:shape="rect 254.285 292.567 30 30 0 0 0 8 1@8cb1608a"/>
  <rect style="paint-order: fill; stroke: rgb(0, 0, 0);" x="289.285" y="292.567" width="30" height="30" transform="matrix(1, 0, 0, 1, 0, -2.842170943040401e-14)"/>
  <rect style="paint-order: fill; stroke: rgb(0, 0, 0);" y="257.567" width="30" height="30" x="184.285" transform="matrix(1, 0, 0, 1, 0, -2.842170943040401e-14)"/>
  <rect style="paint-order: fill; stroke: rgb(0, 0, 0);" x="219.285" y="257.567" width="30" height="30" transform="matrix(1, 0, 0, 1, 0, -2.842170943040401e-14)"/>
  <rect x="254.285" width="30" height="30" style="stroke: rgb(0, 0, 0); fill: rgb(255, 255, 255); paint-order: fill;" y="257.567" transform="matrix(1, 0, 0, 1, 0, -2.842170943040401e-14)"/>
  <path style="stroke: rgb(0, 0, 0); fill: rgb(255, 255, 255); paint-order: fill;" d="M 184.285 327.567 H 206.285 A 8 8 0 0 1 214.285 335.567 V 357.567 H 184.285 V 327.567 Z" transform="matrix(1, 0, 0, 1, 0, -2.842170943040401e-14)" bx:shape="rect 184.285 327.567 30 30 0 8 0 0 1@9cc42d7f"/>
  <rect x="289.285" width="30" height="30" style="stroke: rgb(0, 0, 0); fill: rgb(255, 255, 255); paint-order: fill;" y="257.567" transform="matrix(1, 0, 0, 1, 0, -2.842170943040401e-14)"/>
  <path style="paint-order: fill; stroke: rgb(0, 0, 0);" d="M 227.285 327.567 H 241.285 A 8 8 0 0 1 249.285 335.567 V 357.567 H 219.285 V 335.567 A 8 8 0 0 1 227.285 327.567 Z" transform="matrix(1, 0, 0, 1, 0, -2.842170943040401e-14)" bx:shape="rect 219.285 327.567 30 30 8 8 0 0 1@60faff71"/>
  <path style="stroke: rgb(0, 0, 0); fill: rgb(255, 255, 255); paint-order: fill;" d="M 262.285 327.567 H 284.285 V 357.567 H 254.285 V 335.567 A 8 8 0 0 1 262.285 327.567 Z" transform="matrix(1, 0, 0, 1, 0, -2.842170943040401e-14)" bx:shape="rect 254.285 327.567 30 30 8 0 0 0 1@0fca3685"/>
  <path style="paint-order: fill; stroke: rgb(0, 0, 0);" d="M 289.285 327.567 H 319.285 V 349.567 A 8 8 0 0 1 311.285 357.567 H 289.285 V 327.567 Z" transform="matrix(1, 0, 0, 1, 0, -2.842170943040401e-14)" bx:shape="rect 289.285 327.567 30 30 0 0 8 0 1@c9e94159"/>
</svg>