<svg viewBox="37.916 62.43 295 85" xmlns="http://www.w3.org/2000/svg" xmlns:bx="https://boxy-svg.com">
  <path style="stroke: rgb(0, 0, 0); fill: rgb(255, 255, 255); paint-order: fill;" d="M 55.916 62.43 H 314.916 A 18 18 0 0 1 332.916 80.43 V 129.43 A 18 18 0 0 1 314.916 147.43 H 37.916 V 80.43 A 18 18 0 0 1 55.916 62.43 Z" transform="matrix(1, 0, 0, 1, 0, -2.842170943040401e-14)" bx:shape="rect 37.916 62.43 295 85 18 18 18 0 1@1834a1a7"/>
  <path style="paint-order: fill; stroke: rgb(0, 0, 0);" d="M 55.916 72.43 H 77.916 V 102.43 H 47.916 V 80.43 A 8 8 0 0 1 55.916 72.43 Z" transform="matrix(1, 0, 0, 1, 0, -2.842170943040401e-14)" bx:shape="rect 47.916 72.43 30 30 8 0 0 0 1@72c2f66f"/>
  <rect style="paint-order: fill; stroke: rgb(0, 0, 0);" x="82.916" width="30" height="30" y="72.43" transform="matrix(1, 0, 0, 1, 0, -2.842170943040401e-14)"/>
  <rect style="stroke: rgb(0, 0, 0); fill: rgb(255, 255, 255); paint-order: fill;" x="117.916" width="30" height="30" y="72.43" transform="matrix(1, 0, 0, 1, 0, -2.842170943040401e-14)"/>
  <path style="stroke: rgb(0, 0, 0); fill: rgb(255, 255, 255); paint-order: fill;" d="M 187.916 72.43 H 217.916 V 94.43 A 8 8 0 0 1 209.916 102.43 H 187.916 V 72.43 Z" transform="matrix(1, 0, 0, 1, 0, -2.842170943040401e-14)" bx:shape="rect 187.916 72.43 30 30 0 0 8 0 1@e09aac3d"/>
  <rect x="152.916" width="30" height="30" style="stroke: rgb(0, 0, 0); fill: rgb(255, 255, 255); paint-order: fill;" y="72.43" transform="matrix(1, 0, 0, 1, 0, -2.842170943040401e-14)"/>
  <path style="stroke: rgb(0, 0, 0); fill: rgb(255, 255, 255); paint-order: fill;" d="M 222.916 72.43 H 252.916 V 94.43 A 8 8 0 0 1 244.916 102.43 H 230.916 A 8 8 0 0 1 222.916 94.43 V 72.43 Z" transform="matrix(1, 0, 0, 1, 0, -2.842170943040401e-14)" bx:shape="rect 222.916 72.43 30 30 0 0 8 8 1@2b75b3bc"/>
  <path style="stroke: rgb(0, 0, 0); fill: rgb(255, 255, 255); paint-order: fill;" d="M 257.916 72.43 H 287.916 V 102.43 H 265.916 A 8 8 0 0 1 257.916 94.43 V 72.43 Z" transform="matrix(1, 0, 0, 1, 0, -2.842170943040401e-14)" bx:shape="rect 257.916 72.43 30 30 0 0 0 8 1@e88aaed0"/>
  <path style="paint-order: fill; stroke: rgb(0, 0, 0);" d="M 292.916 72.43 H 314.916 A 8 8 0 0 1 322.916 80.43 V 102.43 H 292.916 V 72.43 Z" transform="matrix(1, 0, 0, 1, 0, -2.842170943040401e-14)" bx:shape="rect 292.916 72.43 30 30 0 8 0 0 1@d2d5caf5"/>
  <rect style="paint-order: fill; stroke: rgb(0, 0, 0);" y="107.43" width="30" height="30" x="47.916" transform="matrix(1, 0, 0, 1, 0, -2.842170943040401e-14)"/>
  <rect style="paint-order: fill; stroke: rgb(0, 0, 0);" x="82.916" y="107.43" width="30" height="30" transform="matrix(1, 0, 0, 1, 0, -2.842170943040401e-14)"/>
  <rect x="117.916" width="30" height="30" style="stroke: rgb(0, 0, 0); fill: rgb(255, 255, 255); paint-order: fill;" y="107.43" transform="matrix(1, 0, 0, 1, 0, -2.842170943040401e-14)"/>
  <path style="stroke: rgb(0, 0, 0); fill: rgb(255, 255, 255); paint-order: fill;" d="M 187.916 107.43 H 209.916 A 8 8 0 0 1 217.916 115.43 V 137.43 H 187.916 V 107.43 Z" transform="matrix(1, 0, 0, 1, 0, -2.842170943040401e-14)" bx:shape="rect 187.916 107.43 30 30 0 8 0 0 1@32d4ebd2"/>
  <rect x="152.916" width="30" height="30" style="stroke: rgb(0, 0, 0); fill: rgb(255, 255, 255); paint-order: fill;" y="107.43" transform="matrix(1, 0, 0, 1, 0, -2.842170943040401e-14)"/>
  <path style="paint-order: fill; stroke: rgb(0, 0, 0);" d="M 230.916 107.43 H 244.916 A 8 8 0 0 1 252.916 115.43 V 137.43 H 222.916 V 115.43 A 8 8 0 0 1 230.916 107.43 Z" transform="matrix(1, 0, 0, 1, 0, -2.842170943040401e-14)" bx:shape="rect 222.916 107.43 30 30 8 8 0 0 1@ca82d8de"/>
  <path style="stroke: rgb(0, 0, 0); fill: rgb(255, 255, 255); paint-order: fill;" d="M 265.916 107.43 H 287.916 V 137.43 H 257.916 V 115.43 A 8 8 0 0 1 265.916 107.43 Z" transform="matrix(1, 0, 0, 1, 0, -2.842170943040401e-14)" bx:shape="rect 257.916 107.43 30 30 8 0 0 0 1@a76413e6"/>
  <path style="paint-order: fill; stroke: rgb(0, 0, 0);" d="M 292.916 107.43 H 322.916 V 129.43 A 8 8 0 0 1 314.916 137.43 H 292.916 V 107.43 Z" transform="matrix(1, 0, 0, 1, 0, -2.842170943040401e-14)" bx:shape="rect 292.916 107.43 30 30 0 0 8 0 1@75e86146"/>
</svg>