<?xml version="1.0" encoding="utf-8"?>
<svg xmlns="http://www.w3.org/2000/svg">
  <defs>
		<symbol
			id="github"
			viewBox="0 0 256 250"
			preserveAspectRatio="xMidYMid"
		>
			<path
				fill="currentColor"
				d="M128.001 0C57.317 0 0 57.307 0 128.001c0 56.554 36.676 104.535 87.535 121.46 6.397 1.185 8.746-2.777 8.746-6.158 0-3.052-.12-13.135-.174-23.83-35.61 7.742-43.124-15.103-43.124-15.103-5.823-14.795-14.213-18.73-14.213-18.73-11.613-7.944.876-7.78.876-7.78 12.853.902 19.621 13.19 19.621 13.19 11.417 19.568 29.945 13.911 37.249 10.64 1.149-8.272 4.466-13.92 8.127-17.116-28.431-3.236-58.318-14.212-58.318-63.258 0-13.975 5-25.394 13.188-34.358-1.329-3.224-5.71-16.242 1.24-33.874 0 0 10.749-3.44 35.21 13.121 10.21-2.836 21.16-4.258 32.038-4.307 10.878.049 21.837 1.47 32.066 4.307 24.431-16.56 35.165-13.12 35.165-13.12 6.967 17.63 2.584 30.65 1.255 33.873 8.207 8.964 13.173 20.383 13.173 34.358 0 49.163-29.944 59.988-58.447 63.157 4.591 3.972 8.682 11.762 8.682 23.704 0 17.126-.148 30.91-.148 35.126 0 3.407 2.304 7.398 8.792 6.14C219.37 232.5 256 184.537 256 128.002 256 57.307 198.691 0 128.001 0Zm-80.06 182.34c-.282.636-1.283.827-2.194.39-.929-.417-1.45-1.284-1.15-1.922.276-.655 1.279-.838 2.205-.399.93.418 1.46 1.293 1.139 1.931Zm6.296 5.618c-.61.566-1.804.303-2.614-.591-.837-.892-.994-2.086-.375-2.66.63-.566 1.787-.301 2.626.591.838.903 1 2.088.363 2.66Zm4.32 7.188c-.785.545-2.067.034-2.86-1.104-.784-1.138-.784-2.503.017-3.05.795-.547 2.058-.055 2.861 1.075.782 1.157.782 2.522-.019 3.08Zm7.304 8.325c-.701.774-2.196.566-3.29-.49-1.119-1.032-1.43-2.496-.726-3.27.71-.776 2.213-.558 3.315.49 1.11 1.03 1.45 2.505.701 3.27Zm9.442 2.81c-.31 1.003-1.75 1.459-3.199 1.033-1.448-.439-2.395-1.613-2.103-2.626.301-1.01 1.747-1.484 3.207-1.028 1.446.436 2.396 1.602 2.095 2.622Zm10.744 1.193c.036 1.055-1.193 1.93-2.715 1.95-1.53.034-2.769-.82-2.786-1.86 0-1.065 1.202-1.932 2.733-1.958 1.522-.03 2.768.818 2.768 1.868Zm10.555-.405c.182 1.03-.875 2.088-2.387 2.37-1.485.271-2.861-.365-3.05-1.386-.184-1.056.893-2.114 2.376-2.387 1.514-.263 2.868.356 3.061 1.403Z" />
		</symbol>
		<symbol id="bsky" viewBox="-5 -10 370 340" fill="currentColor" preserveAspectRatio="xMidYMid">
			<path d="M180 141.964C163.699 110.262 119.308 51.1817 78.0347 22.044C38.4971 -5.86834 23.414 -1.03207 13.526 3.43594C2.08093 8.60755 0 26.1785 0 36.5164C0 46.8542 5.66748 121.272 9.36416 133.694C21.5786 174.738 65.0603 188.607 105.104 184.156C107.151 183.852 109.227 183.572 111.329 183.312C109.267 183.642 107.19 183.924 105.104 184.156C46.4204 192.847 -5.69621 214.233 62.6582 290.33C137.848 368.18 165.705 273.637 180 225.702C194.295 273.637 210.76 364.771 295.995 290.33C360 225.702 313.58 192.85 254.896 184.158C252.81 183.926 250.733 183.645 248.671 183.315C250.773 183.574 252.849 183.855 254.896 184.158C294.94 188.61 338.421 174.74 350.636 133.697C354.333 121.275 360 46.8568 360 36.519C360 26.1811 357.919 8.61012 346.474 3.43851C336.586 -1.02949 321.503 -5.86576 281.965 22.0466C240.692 51.1843 196.301 110.262 180 141.964Z">
			</path>
		</symbol>
  </defs>
</svg>
